<svg xmlns="http://www.w3.org/2000/svg" xmlns:xlink="http://www.w3.org/1999/xlink" width="16" height="16" viewBox="0 0 16 16">
    <defs>
        <path id="uzlhmh7sqa" d="M0 0L16 0 16 16 0 16z"/>
    </defs>
    <g fill="none" fill-rule="evenodd">
        <g>
            <g>
                <g>
                    <mask id="k40k5hk6tb" fill="#fff">
                        <use xlink:href="#uzlhmh7sqa"/>
                    </mask>
                    <path fill="#3F92F0" d="M8 2C4.692 2 2 4.692 2 8s2.692 6 6 6 6-2.692 6-6-2.692-6-6-6m0 14c-4.411 0-8-3.589-8-8 0-4.41 3.589-8 8-8s8 3.59 8 8c0 4.411-3.589 8-8 8" mask="url(#k40k5hk6tb)"/>
                </g>
                <rect width="9" height="2" x="7.889" y="11.389" fill="#3F92F0" rx="1" transform="rotate(45 12.39 12.39)"/>
            </g>
        </g>
    </g>
</svg>
