<?xml version="1.0" encoding="utf-8"?>
<!-- Generator: Adobe Illustrator 22.0.1, SVG Export Plug-In . SVG Version: 6.00 Build 0)  -->
<svg version="1.1" id="레이어_1" xmlns="http://www.w3.org/2000/svg" xmlns:xlink="http://www.w3.org/1999/xlink" x="0px"
	 y="0px" viewBox="0 0 22.8 22.6" style="enable-background:new 0 0 22.8 22.6;" xml:space="preserve">
<style type="text/css">
	.st0{fill:#FFFFFF;}
</style>
<path id="XMLID_35_" class="st0" d="M11.4,1.3c-5.5,0-10,4.5-10,10c0,5.5,4.5,10,10,10c5.5,0,10-4.5,10-10
	C21.4,5.8,16.9,1.3,11.4,1.3z M13.1,4.4c0.9,0,1.4,0.6,1.4,1.4c0,0.9-0.8,1.7-1.9,1.7c-0.9,0-1.4-0.5-1.4-1.4
	C11.3,5.4,11.9,4.4,13.1,4.4z M10.2,18.2c-0.7,0-1.3-0.5-0.8-2.4l0.8-3.5c0.1-0.6,0.2-0.8,0-0.8c-0.2,0-1.2,0.4-1.7,0.8l-0.4-0.6
	c1.8-1.5,3.8-2.4,4.7-2.4c0.7,0,0.9,0.9,0.5,2.2l-1,3.7c-0.2,0.7-0.1,0.9,0.1,0.9c0.2,0,0.9-0.3,1.6-0.8l0.4,0.6
	C12.9,17.5,11,18.2,10.2,18.2z"/>
</svg>
