<?xml version="1.0" encoding="utf-8"?>
<!-- Generator: Adobe Illustrator 22.0.1, SVG Export Plug-In . SVG Version: 6.00 Build 0)  -->
<svg version="1.1" xmlns="http://www.w3.org/2000/svg" xmlns:xlink="http://www.w3.org/1999/xlink" x="0px" y="0px"
	 viewBox="0 0 206.3 84.9" style="enable-background:new 0 0 206.3 84.9;" xml:space="preserve">
<style type="text/css">
	.st0{display:none;}
	.st1{display:inline;}
	.st2{fill:#231815;}
	.st3{fill:#FFFFFF;}
</style>
<g id="Layer_1" class="st0">
	
		<image style="display:inline;overflow:visible;" width="866" height="408" xlink:href="53AD98C2.jpg"  transform="matrix(0.24 0 0 0.24 194 372.89)">
	</image>
</g>
<g id="Layer_2" class="st0">
	
		<text transform="matrix(1 0 0 1 228.2498 443.0833)" style="display:inline;fill:#231815; font-family:'Teko-Regular'; font-size:72px;">InterMD</text>
</g>
<g id="Layer_3" class="st0">
	<g class="st1">
		<path class="st2" d="M314.5,391.3v58.1H211.2v-58.1H314.5 M321,384.8H204.7v71.1H321V384.8L321,384.8z"/>
	</g>
</g>
<g id="Layer_6">
</g>
<g id="Layer_4">
</g>
<g id="Layer_5">
	<g>
		<g>
			<path class="st3" d="M44.5,20.2H51v45.1h-6.5V20.2z"/>
			<path class="st3" d="M66.9,30.1h2.5c4.4,0,6.6,2.1,6.6,6.4v28.7h-6.5V37.4c0-0.9-0.1-1.4-0.4-1.7c-0.3-0.3-0.9-0.4-1.7-0.4h-2.5
				c-0.9,0-1.5,0.2-1.8,0.6c-0.4,0.4-0.5,1-0.5,1.9v27.4H56V30.1h6.5v2.8C63.1,31,64.6,30.1,66.9,30.1z"/>
			<path class="st3" d="M92.6,35.4h-4.8v22.2c0,0.9,0.1,1.4,0.4,1.7c0.3,0.3,0.8,0.4,1.7,0.4h2.7v5.5H88c-4.5,0-6.8-2.1-6.8-6.3
				V35.4H78v-5.3h3.3v-6h6.6v6h4.8V35.4z"/>
			<path class="st3" d="M102.1,30.1h7.1c4.5,0,6.8,2.1,6.8,6.4v13.2h-14.2V58c0,0.8,0.1,1.4,0.4,1.7s0.9,0.4,1.7,0.4h3.3
				c0.9,0,1.4-0.1,1.7-0.4c0.3-0.3,0.4-0.9,0.4-1.7v-2.9h6.3v3.8c0,4.2-2.2,6.3-6.7,6.3h-6.9c-4.5,0-6.7-2.1-6.7-6.3V36.5
				C95.4,32.2,97.6,30.1,102.1,30.1z M101.7,44.9h7.8v-7.6c0-0.8-0.1-1.4-0.4-1.7c-0.3-0.3-0.8-0.4-1.7-0.4h-3.5
				c-0.9,0-1.4,0.1-1.7,0.4s-0.4,0.8-0.4,1.7V44.9z"/>
			<path class="st3" d="M132.6,30h1.4v5.6h-2.6c-3,0-4.5,1.8-4.5,5.3v24.3h-6.5V30.1h6.5v4.3c0.4-1.2,1.1-2.3,2.1-3.1
				C130,30.4,131.2,30,132.6,30z"/>
			<path class="st3" d="M143.8,65.2h-5.7V20.2h7.1l7.7,27.9l7.7-27.9h7.1v45.1h-5.7v-33l-6.2,23.2H150l-6.2-23.1V65.2z"/>
			<path class="st3" d="M173.2,20.2h15.7c4.5,0,6.7,2.1,6.7,6.3v32.4c0,4.2-2.2,6.3-6.7,6.3h-15.7V20.2z M189,58V27.4
				c0-0.9-0.1-1.4-0.4-1.7c-0.3-0.3-0.9-0.4-1.7-0.4h-7.1v34.8h7.1c0.9,0,1.4-0.1,1.7-0.4C188.9,59.5,189,58.9,189,58z"/>
		</g>
		<polygon class="st3" points="17.2,71.5 17.2,13.4 120.4,13.4 120.4,24.1 126.9,24.1 126.9,6.9 10.7,6.9 10.7,78 126.9,78 
			126.9,71.5 		"/>
	</g>
</g>
</svg>
