<svg id="Layer_2" data-name="Layer 2" xmlns="http://www.w3.org/2000/svg" viewBox="0 0 62 47"><defs><style>.cls-1{fill:#282827;}</style></defs><title>f_i_3_on</title><path class="cls-1" d="M39.54,3.69H35.35a4.41,4.41,0,0,0-8.71,0H22.46a.83.83,0,0,0-.83.83V9.62a.79.79,0,0,0,.79.79H39.58a.79.79,0,0,0,.79-.79V4.52A.83.83,0,0,0,39.54,3.69ZM31,6a1.56,1.56,0,1,1,1.56-1.56A1.56,1.56,0,0,1,31,6Z"/><path class="cls-1" d="M47.53,5.08h-5v5.2A2.46,2.46,0,0,1,40,12.73H22a2.45,2.45,0,0,1-2.45-2.45V5.08H14.47A1.9,1.9,0,0,0,12.55,7v38.2A1.9,1.9,0,0,0,14.47,47H47.53a1.9,1.9,0,0,0,1.91-1.89V7A1.9,1.9,0,0,0,47.53,5.08ZM21.32,36.9a1.55,1.55,0,0,1-1.12.46,1.54,1.54,0,0,1-1.13-.46,1.48,1.48,0,0,1-.34-.51,1.51,1.51,0,0,1-.13-.61,1.6,1.6,0,0,1,.46-1.12,1.58,1.58,0,0,1,2.7,1.12A1.57,1.57,0,0,1,21.32,36.9Zm0-7.93a1.83,1.83,0,0,1-.52.35,1.68,1.68,0,0,1-.6.12A1.62,1.62,0,0,1,19.08,29a1.42,1.42,0,0,1-.34-.52,1.46,1.46,0,0,1-.13-.6,1.58,1.58,0,0,1,.46-1.12,1.65,1.65,0,0,1,2.25,0,1.61,1.61,0,0,1,.45,1.12A1.57,1.57,0,0,1,21.32,29Zm.43-8.92a1.35,1.35,0,0,1-.09.3,1.39,1.39,0,0,1-.15.27,2.15,2.15,0,0,1-.19.24,1.59,1.59,0,0,1-2.71-1.12,1.58,1.58,0,0,1,.46-1.12,1.64,1.64,0,0,1,2.25,0,1.61,1.61,0,0,1,.45,1.12A3,3,0,0,1,21.76,20.05ZM41.16,37.37H25.71a1.58,1.58,0,1,1,0-3.16H41.16a1.58,1.58,0,1,1,0,3.16Zm0-7.93H25.71a1.58,1.58,0,1,1,0-3.16H41.16a1.58,1.58,0,1,1,0,3.16Zm0-8.11H25.71a1.58,1.58,0,1,1,0-3.16H41.16a1.58,1.58,0,1,1,0,3.16Z"/></svg>