<svg id="Layer_1" data-name="Layer 1" xmlns="http://www.w3.org/2000/svg" viewBox="0 0 62 47"><defs><style>.cls-1{fill:#a09f9f;}</style></defs><title>Artboard 1</title><path class="cls-1" d="M43.15,46H12.79a4.23,4.23,0,0,1-4.23-4.22V5.22A4.23,4.23,0,0,1,12.79,1H43.15a4.23,4.23,0,0,1,4.22,4.23V21.38a1.5,1.5,0,1,1-3,0V5.22A1.23,1.23,0,0,0,43.15,4H12.79a1.23,1.23,0,0,0-1.23,1.23V41.78A1.23,1.23,0,0,0,12.79,43H43.15a1.23,1.23,0,0,0,1.22-1.22v-5a1.5,1.5,0,0,1,3,0v5A4.23,4.23,0,0,1,43.15,46Z"/><path class="cls-1" d="M42.4,34.42a1.57,1.57,0,0,1-1.21-.54l-7.27-7.49a1.29,1.29,0,0,1-.21-1.13,1.41,1.41,0,0,1,.85-.91,1.61,1.61,0,0,1,1.82.41l6,6,12-14a1.58,1.58,0,0,1,1.83-.43,1.41,1.41,0,0,1,.85.91,1.3,1.3,0,0,1-.2,1.13L43.62,33.87A1.53,1.53,0,0,1,42.4,34.42ZM55.9,18l-.06.07Z"/><path class="cls-1" d="M37.17,13.71H18.77a1.5,1.5,0,0,1,0-3h18.4a1.5,1.5,0,0,1,0,3Z"/><path class="cls-1" d="M28,21.22h-9.2a1.5,1.5,0,0,1,0-3H28a1.5,1.5,0,0,1,0,3Z"/></svg>