<svg id="Layer_2" data-name="Layer 2" xmlns="http://www.w3.org/2000/svg" viewBox="0 0 62 47"><defs><style>.cls-1{fill:#282827;}</style></defs><title>Artboard 1</title><path class="cls-1" d="M42.4,34.42a1.57,1.57,0,0,1-1.21-.54l-7.27-7.49a1.29,1.29,0,0,1-.21-1.13,1.41,1.41,0,0,1,.85-.91,1.61,1.61,0,0,1,1.82.41l6,6,12-14a1.58,1.58,0,0,1,1.83-.43,1.41,1.41,0,0,1,.85.91,1.3,1.3,0,0,1-.2,1.13L43.62,33.87A1.53,1.53,0,0,1,42.4,34.42ZM55.9,18l-.06.07Z"/><path class="cls-1" d="M43.15,1H12.79A4.23,4.23,0,0,0,8.56,5.22V41.78A4.23,4.23,0,0,0,12.79,46H43.15a4.22,4.22,0,0,0,4.16-3.64,1.81,1.81,0,0,0,.06-.44V32.56l-2.23,2.61a3.5,3.5,0,0,1-2.69,1.25h-.07a3.56,3.56,0,0,1-2.65-1.18l-7.4-7.65a3.31,3.31,0,0,1-.54-2.89,3.45,3.45,0,0,1,2.06-2.23,3.59,3.59,0,0,1,4,.9l4.44,4.44,5.1-6V5.23A4.23,4.23,0,0,0,43.15,1ZM28,21.22H18.8a1.5,1.5,0,0,1,0-3H28a1.5,1.5,0,0,1,0,3Zm9.17-7.51H18.77a1.5,1.5,0,0,1,0-3h18.4a1.5,1.5,0,0,1,0,3Z"/></svg>