<svg id="Layer_1" data-name="Layer 1" xmlns="http://www.w3.org/2000/svg" viewBox="0 0 62 47"><defs><style>.cls-1,.cls-2{fill:none;stroke:#a09f9f;stroke-miterlimit:10;stroke-width:3px;}.cls-2{stroke-linecap:round;}.cls-3{fill:#a09f9f;}</style></defs><title>f_i_3</title><path class="cls-1" d="M39.76,7.05h7.77a.32.32,0,0,1,.33.3V45.19a.32.32,0,0,1-.33.3H14.77a.32.32,0,0,1-.33-.3V7.35a.32.32,0,0,1,.33-.3h7.71"/><line class="cls-2" x1="27.48" y1="18.98" x2="40.25" y2="18.98"/><line class="cls-2" x1="22.02" y1="18.98" x2="22.02" y2="18.98"/><line class="cls-2" x1="27.48" y1="27.01" x2="40.25" y2="27.01"/><line class="cls-2" x1="22.02" y1="27.01" x2="22.02" y2="27.01"/><line class="cls-2" x1="27.48" y1="34.87" x2="40.25" y2="34.87"/><line class="cls-2" x1="22.02" y1="34.87" x2="22.02" y2="34.87"/><path class="cls-3" d="M40.36,4H35.84a4.76,4.76,0,0,0-9.39,0H21.93a.89.89,0,0,0-.89.89v5.5a.85.85,0,0,0,.85.85H40.4a.85.85,0,0,0,.85-.85V4.88A.89.89,0,0,0,40.36,4ZM31.15,6.46a1.68,1.68,0,1,1,1.68-1.68A1.68,1.68,0,0,1,31.15,6.46Z"/></svg>